<svg xmlns="http://www.w3.org/2000/svg" xmlns:xlink="http://www.w3.org/1999/xlink" width="400" height="400" viewBox="0 0 400 400">
<rect data-name="background" width="100%" height="100%" fill="#000000" fill-opacity="0"></rect><g data-name="watermark" class="watermark-logodesign" stroke="#FFFFFF" transform="translate(10, 320) scale(1.5) rotate(-45)" style="opacity:0.040000010281801224;"><path fill="#000000" d="M22.92,19.2q3.04,1.68,4.8,4.7t1.76,6.78t-1.76,6.78t-4.8,4.7t-6.68,1.68t-6.7-1.68t-4.84-4.7t-1.78-6.78t1.78-6.78t4.84-4.7t6.7-1.68t6.68,1.68z M11.14,21.74q-2.26,1.3-3.54,3.62t-1.28,5.32t1.28,5.32t3.54,3.6t5.1,1.28t5.08-1.28t3.52-3.6t1.28-5.32t-1.28-5.32t-3.54-3.62t-5.06-1.3q-2.84,0-5.1,1.3z M21.4,24.76l-1.8,2.32q-0.72-0.56-1.4-0.78t-1.48-0.22q-1.44,0-2.3,1.1t-0.86,3.46q0,2.32,0.82,3.44t2.26,1.12q0.96,0,1.74-0.3t1.54-0.9l1.64,2.44q-2.24,2.04-5.2,2.04q-3.2,0-5.08-2.04t-1.88-5.8q0-2.4,0.9-4.16t2.48-2.7t3.54-0.94q2.92,0,5.08,1.92z M41.2,20.32l0,22.96l10.96,0l-0.64,4.72l-16.2,0l0-27.68l5.88,0z M71.92,29.14q2.68,2.98,2.68,8.26q0,3.36-1.22,5.9t-3.52,3.94t-5.42,1.4q-4.76,0-7.46-2.98t-2.7-8.26q0-3.36,1.22-5.9t3.52-3.94t5.46-1.4q4.76,0,7.44,2.98z M61.26,32.1q-1.06,1.7-1.06,5.3t1.06,5.3t3.18,1.7t3.18-1.7t1.06-5.3t-1.04-5.3t-3.16-1.7q-2.16,0-3.22,1.7z M97.88,27.96q-2.08,0.8-6.12,0.8q2,0.88,2.96,2.18t0.96,3.26q0,2.04-1.06,3.66t-3.04,2.54t-4.62,0.92q-1.4,0-2.48-0.28q-0.8,0.52-0.8,1.4q0,0.64,0.5,1.02t1.94,0.38l3.24,0q2.36,0,4.14,0.78t2.76,2.16t0.98,3.14q0,3.24-2.78,5.06t-8.02,1.82q-3.76,0-5.94-0.78t-3.06-2.26t-0.88-3.72l5.08,0q0,1.04,0.4,1.66t1.46,0.92t3.06,0.3q2.76,0,3.86-0.68t1.1-1.92q0-1.12-0.84-1.72t-2.48-0.6l-3.12,0q-3.16,0-4.72-1.18t-1.56-2.98q0-1.12,0.66-2.18t1.82-1.78q-1.96-1.08-2.86-2.54t-0.9-3.5q0-2.32,1.14-4.06t3.2-2.68t4.7-0.94q3.28,0.08,5.4-0.56t4.52-2z M84.14,30.98q-0.94,1.02-0.94,2.78q0,1.8,0.94,2.84t2.58,1.04q1.72,0,2.6-1t0.88-2.96q0-3.72-3.52-3.72q-1.6,0-2.54,1.02z M117.04,29.14q2.68,2.98,2.68,8.26q0,3.36-1.22,5.9t-3.52,3.94t-5.42,1.4q-4.76,0-7.46-2.98t-2.7-8.26q0-3.36,1.22-5.9t3.52-3.94t5.46-1.4q4.76,0,7.44,2.98z M106.38,32.1q-1.06,1.7-1.06,5.3t1.06,5.3t3.18,1.7t3.18-1.7t1.06-5.3t-1.04-5.3t-3.16-1.7q-2.16,0-3.22,1.7z M141.78,23.26q3.9,2.94,3.9,10.78q0,7.68-3.82,10.82t-9.78,3.14l-7.92,0l0-27.68l7.24,0q6.48,0,10.38,2.94z M130.04,24.64l0,19.04l2.4,0q3.4,0,5.26-2.1t1.86-7.54q0-3.76-0.94-5.84t-2.5-2.82t-3.8-0.74l-2.28,0z M167.84,39.12l-13.24,0q0.28,2.88,1.56,4.08t3.48,1.2q1.36,0,2.56-0.44t2.6-1.4l2.36,3.2q-3.56,2.88-8.04,2.88q-5,0-7.68-3t-2.68-8.12q0-3.24,1.14-5.82t3.32-4.06t5.18-1.48q4.52,0,7.04,2.84t2.52,7.92q0,0.4-0.12,2.2z M162.32,35.32q0-5.28-3.8-5.28q-1.76,0-2.74,1.3t-1.18,4.22l7.72,0l0-0.24z M186.8,28.72l-2.16,3.24q-2.68-1.68-5.28-1.68q-1.4,0-2.16,0.52t-0.76,1.4q0,0.64,0.34,1.08t1.28,0.84t2.82,0.96q3.36,0.92,5,2.46t1.64,4.22q0,2.12-1.22,3.68t-3.3,2.38t-4.64,0.82q-2.68,0-4.88-0.82t-3.76-2.26l2.8-3.12q2.68,2.08,5.68,2.08q1.6,0,2.54-0.62t0.94-1.7q0-0.84-0.36-1.32t-1.32-0.9t-3-0.98q-3.2-0.88-4.74-2.5t-1.54-4.02q0-1.8,1.04-3.24t2.94-2.26t4.42-0.82q4.48,0,7.68,2.56z M196.92,26.8l0,21.2l-5.68,0l0-21.2l5.68,0z M196.54,16.82q0.98,0.94,0.98,2.38t-0.98,2.38t-2.5,0.94t-2.48-0.94t-0.96-2.38t0.96-2.38t2.48-0.94t2.5,0.94z M221.48,27.96q-2.08,0.8-6.12,0.8q2,0.88,2.96,2.18t0.96,3.26q0,2.04-1.06,3.66t-3.04,2.54t-4.62,0.92q-1.4,0-2.48-0.28q-0.8,0.52-0.8,1.4q0,0.64,0.5,1.02t1.94,0.38l3.24,0q2.36,0,4.14,0.78t2.76,2.16t0.98,3.14q0,3.24-2.78,5.06t-8.02,1.82q-3.76,0-5.94-0.78t-3.06-2.26t-0.88-3.72l5.08,0q0,1.04,0.4,1.66t1.46,0.92t3.06,0.3q2.76,0,3.86-0.68t1.1-1.92q0-1.12-0.84-1.72t-2.48-0.6l-3.12,0q-3.16,0-4.72-1.18t-1.56-2.98q0-1.12,0.66-2.18t1.82-1.78q-1.96-1.08-2.86-2.54t-0.9-3.5q0-2.32,1.14-4.06t3.2-2.68t4.7-0.94q3.28,0.08,5.4-0.56t4.52-2z M207.74,30.98q-0.94,1.02-0.94,2.78q0,1.8,0.94,2.84t2.58,1.04q1.72,0,2.6-1t0.88-2.96q0-3.72-3.52-3.72q-1.6,0-2.54,1.02z M240.48,27.86q1.56,1.7,1.56,4.7l0,15.44l-5.68,0l0-14.48q0-1.72-0.58-2.42t-1.74-0.7q-1.2,0-2.18,0.74t-1.9,2.22l0,14.64l-5.68,0l0-21.2l4.92,0l0.44,2.68q1.32-1.64,2.9-2.48t3.58-0.84q2.8,0,4.36,1.7z M251.84,42.8q1,1,1,2.4t-1,2.42t-2.44,1.02q-1.4,0-2.4-1.02t-1-2.42t1-2.4t2.4-1q1.44,0,2.44,1z M271.8,48l-1.56-6.2l-8.68,0l-1.56,6.2l-6.12,0l8.52-27.68l7.16,0l8.48,27.68l-6.24,0z M262.68,37.44l6.44,0l-3.24-12.76z M286.48,20.32l0,27.68l-5.88,0l0-27.68l5.88,0z" stroke="#FFFFFF"></path></g><g data-name="container" data="container_num:16" fill="#70D4E1" transform="translate(24,24) scale(3.381364122570146)"><path xmlns="http://www.w3.org/2000/svg" d="M0 0v104.1h104.1V0zm101.7 101.7H2.4V2.4h99.3z" fill="#70D4E1"></path></g><g data-name="icon" fill="#FFFFFF" data="id:7176003" transform="translate(92.41041028486316,69.86031251490292) scale(2.151782970272078)">
    
 <path d="m25.391 87.5c-0.57031 0-1.0586-0.41406-1.1562-0.97656-0.60547-3.6289-1.7461-7.0547-3.3984-10.195-1.7227-3.2773-3.5156-5.3125-4.957-6.9414-1.8281-2.0703-3.2656-3.7031-3.3789-6.4414-0.12109-2.9297 1.3281-6.3438 3.7891-8.9062 2.4922-2.5977 5.7227-4.0273 9.1016-4.0312 3.3789 0 6.6094 1.4375 9.1016 4.0312 2.4609 2.5625 3.9102 5.9766 3.7891 8.9062-0.11719 2.7383-1.5586 4.375-3.3789 6.4414-1.4414 1.6367-3.2344 3.668-4.957 6.9414-1.6484 3.1406-2.793 6.5664-3.3984 10.195-0.097656 0.5625-0.58594 0.97656-1.1562 0.97656zm0-35.156c-2.7344 0-5.3672 1.1758-7.4062 3.3125-2 2.0898-3.2344 4.9141-3.1406 7.1875 0.078125 1.9102 1.1016 3.0703 2.7969 4.9922 1.5234 1.7266 3.4219 3.8789 5.2734 7.4062 1 1.9102 1.832 3.9219 2.4805 6.0117 0.64453-2.0898 1.4766-4.1016 2.4805-6.0117 1.8555-3.5234 3.75-5.6797 5.2734-7.4062 1.6953-1.918 2.7148-3.082 2.7969-4.9922 0.097657-2.2734-1.1367-5.0977-3.1406-7.1875-2.0469-2.1367-4.6797-3.3125-7.4141-3.3125z" fill="#FFFFFF"></path>
 <path d="m25.391 68.75c-3.8789 0-7.0312-3.1523-7.0312-7.0312s3.1523-7.0312 7.0312-7.0312c3.875 0 7.0312 3.1523 7.0312 7.0312 0 3.875-3.1562 7.0312-7.0312 7.0312zm0-11.719c-2.582 0-4.6875 2.1055-4.6875 4.6875s2.1055 4.6875 4.6875 4.6875 4.6875-2.1055 4.6875-4.6875-2.1055-4.6875-4.6875-4.6875z" fill="#FFFFFF"></path>
 <path d="m74.609 50c-0.57031 0-1.0586-0.41406-1.1562-0.97656-0.60547-3.6289-1.7461-7.0547-3.3984-10.195-1.7227-3.2773-3.5156-5.3125-4.957-6.9414-1.8281-2.0703-3.2656-3.7031-3.3789-6.4414-0.12109-2.9297 1.3281-6.3438 3.7891-8.9062 2.4922-2.5977 5.7227-4.0273 9.1016-4.0312 3.3789 0 6.6094 1.4375 9.1016 4.0312 2.4609 2.5625 3.9102 5.9766 3.7891 8.9062-0.11719 2.7383-1.5586 4.375-3.3789 6.4414-1.4414 1.6367-3.2344 3.668-4.957 6.9414-1.6484 3.1406-2.793 6.5664-3.3984 10.195-0.097656 0.5625-0.58594 0.97656-1.1562 0.97656zm0-35.156c-2.7344 0-5.3672 1.1758-7.4062 3.3125-2 2.0898-3.2344 4.9141-3.1406 7.1875 0.078125 1.9102 1.1016 3.0703 2.7969 4.9922 1.5234 1.7266 3.4219 3.8789 5.2734 7.4062 1 1.9102 1.832 3.9219 2.4805 6.0117 0.64453-2.0898 1.4766-4.1016 2.4805-6.0117 1.8555-3.5234 3.75-5.6797 5.2734-7.4062 1.6953-1.918 2.7148-3.082 2.7969-4.9922 0.097657-2.2734-1.1367-5.0977-3.1406-7.1875-2.0469-2.1367-4.6797-3.3125-7.4141-3.3125z" fill="#FFFFFF"></path>
 <path d="m74.609 31.25c-3.8789 0-7.0312-3.1523-7.0312-7.0312 0-3.875 3.1523-7.0312 7.0312-7.0312s7.0312 3.1523 7.0312 7.0312c0 3.875-3.1562 7.0312-7.0312 7.0312zm0-11.719c-2.582 0-4.6875 2.1055-4.6875 4.6875s2.1055 4.6875 4.6875 4.6875 4.6875-2.1055 4.6875-4.6875-2.1055-4.6875-4.6875-4.6875z" fill="#FFFFFF"></path>
 <path d="m32.387 87.5h-2.2461c-0.64844 0-1.1719-0.52344-1.1719-1.1719s0.52344-1.1719 1.1719-1.1719h2.2461c0.64844 0 1.1719 0.52344 1.1719 1.1719s-0.51953 1.1719-1.1719 1.1719z" fill="#FFFFFF"></path>
 <path d="m39.133 87.5h-2.2461c-0.64844 0-1.1719-0.52344-1.1719-1.1719s0.52344-1.1719 1.1719-1.1719h2.2461c0.64844 0 1.1719 0.52344 1.1719 1.1719s-0.52344 1.1719-1.1719 1.1719z" fill="#FFFFFF"></path>
 <path d="m45.875 87.5h-2.2461c-0.64844 0-1.1719-0.52344-1.1719-1.1719s0.52344-1.1719 1.1719-1.1719h2.2461c0.64844 0 1.1719 0.52344 1.1719 1.1719s-0.52344 1.1719-1.1719 1.1719z" fill="#FFFFFF"></path>
 <path d="m52.617 87.5h-2.2461c-0.64844 0-1.1719-0.52344-1.1719-1.1719s0.52344-1.1719 1.1719-1.1719h2.2461c0.64844 0 1.1719 0.52344 1.1719 1.1719s-0.52734 1.1719-1.1719 1.1719z" fill="#FFFFFF"></path>
 <path d="m59.359 87.5h-2.2461c-0.64844 0-1.1719-0.52344-1.1719-1.1719s0.52344-1.1719 1.1719-1.1719h2.2461c0.64844 0 1.1719 0.52344 1.1719 1.1719s-0.52734 1.1719-1.1719 1.1719z" fill="#FFFFFF"></path>
 <path d="m66.102 87.5h-2.2461c-0.64844 0-1.1719-0.52344-1.1719-1.1719s0.52344-1.1719 1.1719-1.1719h2.2461c0.64844 0 1.1719 0.52344 1.1719 1.1719s-0.52344 1.1719-1.1719 1.1719z" fill="#FFFFFF"></path>
 <path d="m72.844 87.5h-2.2461c-0.64844 0-1.1719-0.52344-1.1719-1.1719s0.52344-1.1719 1.1719-1.1719h2.2461c0.64844 0 1.1719 0.52344 1.1719 1.1719s-0.52344 1.1719-1.1719 1.1719z" fill="#FFFFFF"></path>
 <path d="m52.93 51.172h-2.832c-0.64844 0-1.1719-0.52344-1.1719-1.1719s0.52344-1.1719 1.1719-1.1719h2.832c0.64844 0 1.1719 0.52344 1.1719 1.1719s-0.52734 1.1719-1.1719 1.1719z" fill="#FFFFFF"></path>
 <path d="m61.426 51.172h-2.832c-0.64844 0-1.1719-0.52344-1.1719-1.1719s0.52344-1.1719 1.1719-1.1719h2.832c0.64844 0 1.1719 0.52344 1.1719 1.1719s-0.52734 1.1719-1.1719 1.1719z" fill="#FFFFFF"></path>
 <path d="m69.922 51.172h-2.832c-0.64844 0-1.1719-0.52344-1.1719-1.1719s0.52344-1.1719 1.1719-1.1719h2.832c0.64844 0 1.1719 0.52344 1.1719 1.1719s-0.52344 1.1719-1.1719 1.1719z" fill="#FFFFFF"></path>
 <path d="m79.586 87.5h-2.2461c-0.64844 0-1.1719-0.52344-1.1719-1.1719s0.52344-1.1719 1.1719-1.1719h2.2461c0.64844 0 1.1719 0.52344 1.1719 1.1719s-0.52344 1.1719-1.1719 1.1719z" fill="#FFFFFF"></path>
 <path d="m47.832 66.406h-2.2461c-0.64844 0-1.1719-0.52344-1.1719-1.1719s0.52344-1.1719 1.1719-1.1719h2.2461c0.64844 0 1.1719 0.52344 1.1719 1.1719s-0.52344 1.1719-1.1719 1.1719z" fill="#FFFFFF"></path>
 <path d="m54.574 66.406h-2.2461c-0.64844 0-1.1719-0.52344-1.1719-1.1719s0.52344-1.1719 1.1719-1.1719h2.2461c0.64844 0 1.1719 0.52344 1.1719 1.1719s-0.51953 1.1719-1.1719 1.1719z" fill="#FFFFFF"></path>
 <path d="m61.32 66.406h-2.2461c-0.64844 0-1.1719-0.52344-1.1719-1.1719s0.52344-1.1719 1.1719-1.1719h2.2461c0.64844 0 1.1719 0.52344 1.1719 1.1719s-0.53125 1.1719-1.1719 1.1719z" fill="#FFFFFF"></path>
 <path d="m68.062 66.406h-2.2461c-0.64844 0-1.1719-0.52344-1.1719-1.1719s0.52344-1.1719 1.1719-1.1719h2.2461c0.64844 0 1.1719 0.52344 1.1719 1.1719s-0.52734 1.1719-1.1719 1.1719z" fill="#FFFFFF"></path>
 <path d="m74.801 66.406h-2.2461c-0.64844 0-1.1719-0.52344-1.1719-1.1719s0.52344-1.1719 1.1719-1.1719h2.2461c0.64844 0 1.1719 0.52344 1.1719 1.1719s-0.52344 1.1719-1.1719 1.1719z" fill="#FFFFFF"></path>
 <path d="m81.543 66.406h-2.2461c-0.64844 0-1.1719-0.52344-1.1719-1.1719s0.52344-1.1719 1.1719-1.1719h2.2461c0.64844 0 1.1719 0.52344 1.1719 1.1719s-0.52344 1.1719-1.1719 1.1719z" fill="#FFFFFF"></path>
 <path d="m86.328 87.5h-2.2461c-0.64844 0-1.1719-0.52344-1.1719-1.1719s0.52344-1.1719 1.1719-1.1719h2.2461c0.64844 0 1.1719 0.52344 1.1719 1.1719s-0.52344 1.1719-1.1719 1.1719z" fill="#FFFFFF"></path>
 <path d="m86.328 69.328c-0.64844 0-1.1719-0.52344-1.1719-1.1719v-2.2461c0-0.64844 0.52344-1.1719 1.1719-1.1719s1.1719 0.52344 1.1719 1.1719v2.2461c0 0.64844-0.52344 1.1719-1.1719 1.1719z" fill="#FFFFFF"></path>
 <path d="m86.328 76.07c-0.64844 0-1.1719-0.52344-1.1719-1.1719v-2.2461c0-0.64844 0.52344-1.1719 1.1719-1.1719s1.1719 0.52344 1.1719 1.1719v2.2461c0 0.64844-0.52344 1.1719-1.1719 1.1719z" fill="#FFFFFF"></path>
 <path d="m86.328 82.812c-0.64844 0-1.1719-0.52344-1.1719-1.1719v-2.2461c0-0.64844 0.52344-1.1719 1.1719-1.1719s1.1719 0.52344 1.1719 1.1719v2.2461c0 0.64844-0.52344 1.1719-1.1719 1.1719z" fill="#FFFFFF"></path>
 <path d="m45.312 54.977c-0.64844 0-1.1719-0.52344-1.1719-1.1719v-2.2461c0-0.64844 0.52344-1.1719 1.1719-1.1719s1.1719 0.52344 1.1719 1.1719v2.2461c0 0.64844-0.52344 1.1719-1.1719 1.1719z" fill="#FFFFFF"></path>
 <path d="m45.312 61.719c-0.64844 0-1.1719-0.52344-1.1719-1.1719v-2.2461c0-0.64844 0.52344-1.1719 1.1719-1.1719s1.1719 0.52344 1.1719 1.1719v2.2461c0 0.64844-0.52344 1.1719-1.1719 1.1719z" fill="#FFFFFF"></path>

    </g><g data-name="business_name" fill="#FFFFFF" data="id:168" transform="translate(60.65904381667046,269.6485365506084) scale(0.8229443909151183)"><path d="M8.76,14.68l0,9.92q1.24-0.72,2.76-0.96q1.12-0.2,2.88-0.2l5.68,0q2.36,0,3.68-1.08q1.4-1.16,1.4-3.48q0-2.2-1.48-3.28q-1.28-0.92-3.6-0.92l-11.32,0z M21.52,35.44l-3.64-7.64l-3.48,0q-1.64,0-2.88,0.2q-1.52,0.28-2.76,0.96l0,11.2l-4.36,0l0-29.84l15.68,0q2.76,0,4.88,1.04t3.28,2.96q1.24,2.04,1.24,4.8q0,3.36-1.8,5.52t-5.08,3l2.32,4.76q1,1.48,1.56,2.08q0.68,0.76,1.3,1.02t1.62,0.26l0.44,0l0.96-0.04l0,4.44q-2.32,0-3.44-0.16q-1.88-0.32-3.2-1.24q-1.56-1.12-2.64-3.32z M56.56,29.64q0-2.2-1.2-3.8q-1.04-1.4-2.92-2.16q-1.72-0.68-3.8-0.68t-3.84,0.72q-1.88,0.76-2.92,2.24q-1.16,1.6-1.16,3.84t1.2,3.84q1.04,1.44,2.92,2.24q1.76,0.72,3.8,0.72t3.84-0.8q1.84-0.84,2.92-2.36q1.16-1.64,1.16-3.8z M60.88,29.6q0,3.4-1.8,6.04q-1.64,2.44-4.52,3.84q-2.76,1.32-5.96,1.32t-5.96-1.32q-2.84-1.36-4.48-3.76q-1.76-2.64-1.76-6t1.8-5.96q1.64-2.4,4.52-3.72q2.76-1.28,5.96-1.28t5.92,1.2q2.84,1.28,4.48,3.64q1.8,2.56,1.8,6z M78.12,40.8l-0.08,0q-4.56,0-7.12-2.12q-2.84-2.24-2.84-6.64l0-12.6l4.12,0l0,12.6q0,2.52,1.64,3.6q1.4,1,4.24,1t4.28-1q1.6-1.08,1.6-3.6l0-12.6l4.12,0l0,12.6q0,4.4-2.8,6.64q-2.6,2.12-7.16,2.12z M113.52,23.56l-7.8,0l0,16.6l-4.12,0l0-16.6l-7.52,0l0-4.12l19.44,0l0,4.12z M124,32.72l0,3.28l13,0l0,4.16l-17.08,0l0-20.72l16.32,0l0,4.12l-12.24,0l0,5.04q1.24-0.72,3-1q1.36-0.2,3.48-0.2l3.04,0l0,4.12l-3.04,0q-2.76,0-4,0.24q-1.08,0.2-2.48,0.96z M160.68,21.36l-2.76,3.2q-2.2-1.8-6.16-1.8q-1.56,0-2.88,0.68t-1.32,1.56q0,0.72,0.28,1.08q0.36,0.52,1.28,0.72q1.04,0.28,2.96,0.28q4.16,0,6.56,0.92q2.12,0.76,2.96,2.28q0.68,1.24,0.68,3.16q0,3.6-3,5.52q-2.84,1.84-7.48,1.84q-2.68,0-5.18-1.18t-4.22-3.22l2.96-3l0.36,0.4q0.84,0.88,1.36,1.36q0.92,0.76,1.92,1.16q1.24,0.48,2.8,0.48q2.88,0,4.64-0.88t1.76-2.48q0-1.36-1.56-1.84q-1.4-0.44-4.84-0.44q-4,0-6.12-1.4q-2.44-1.52-2.44-4.76q0-1.84,1.2-3.28q1.12-1.4,3.08-2.18t4.28-0.78q2.48,0,4.44,0.52q2.32,0.6,4.44,2.08z  M212.76,10.32l4.6,0l-9.52,29.84l-4.72,0l-5.76-17.64l-5.6,17.64l-4.72,0l-10.12-29.84l4.48,0l7.92,22.32l5.6-17.6l-1.52-4.72l4.48,0l7.52,22.32z M235.48,33.28l0.56,0l-4.04-7.68l-4.92,9.48q1.36-0.72,3.08-1.16q2.48-0.64,5.32-0.64z M229.88,21.56l-1.36-2.6l4.44,0l11.2,21.2l-4.52,0l-1.64-3.12l-2.48,0q-2.36,0-5,0.56q-2.24,0.44-4.08,1.2q-1.68,0.64-2.04,1.12l-0.12,0.24l-4.32,0z M265.84,40.16l-15.28,0l0-20.72l4.28,0l0,16.56l11,0l0,4.16z M287.12,40.16l-15.28,0l0-20.72l4.28,0l0,16.56l11,0l0,4.16z M297.2,32.72l0,3.28l13,0l0,4.16l-17.08,0l0-20.72l16.32,0l0,4.12l-12.24,0l0,5.04q1.24-0.72,3-1q1.36-0.2,3.48-0.2l3.04,0l0,4.12l-3.04,0q-2.76,0-4,0.24q-1.08,0.2-2.48,0.96z M334.24,23.56l-7.8,0l0,16.6l-4.12,0l0-16.6l-7.52,0l0-4.12l19.44,0l0,4.12z" fill="#FFFFFF"></path></g></svg>